<svg width="375.781" height="200" viewBox="0 0 1924 1024" xmlns="http://www.w3.org/2000/svg" xmlns:xlink="http://www.w3.org/1999/xlink" overflow="hidden"><path d="M735.789 897.71 732.932 897.71C647.235 888.99 528.914 860.124 449.983 771.721 439.459 760.144 440.361 741.953 451.937 731.278 463.514 720.754 481.705 721.656 492.38 733.233 558.832 807.353 662.721 832.31 737.743 839.978 753.078 841.932 764.655 855.313 763.753 871.701 762.7 887.186 750.222 897.71 735.789 897.71Z" fill="#2E8E6D"/><path d="M735.789 907.483 731.88 907.483C644.68 898.612 523.652 869.145 442.616 778.186 435.85 770.819 432.242 760.896 432.843 750.673 433.294 740.449 437.805 730.978 445.322 724.062 452.388 717.597 461.409 714.139 471.031 714.139 481.856 714.139 492.23 718.649 499.446 726.618 564.095 798.633 665.126 822.838 738.645 830.356L738.795 830.356C759.693 832.911 774.578 851.103 773.375 872.452 772.172 892.448 755.935 907.483 735.789 907.483ZM733.383 887.938 735.789 887.938C745.711 887.938 753.379 880.872 753.98 871.099 754.582 860.274 747.215 851.103 736.691 849.6 659.864 841.631 553.871 816.223 485.163 739.547 481.705 735.789 476.594 733.533 471.181 733.533 466.521 733.533 462.01 735.187 458.703 738.344 454.944 741.652 452.839 746.313 452.539 751.424 452.238 756.536 454.042 761.197 457.35 764.956 534.026 851.254 649.641 879.518 733.383 887.938Z" fill="#2E8E6D"/><path d="M471.181 781.343C463.514 781.343 455.846 778.487 449.983 771.721 420.214 739.998 405.781 702.412 405.781 661.969 405.781 591.758 449.983 532.071 512.526 508.918 487.569 480.052 473.136 442.465 473.136 402.173 473.136 324.294 528.914 255.887 605.89 241.454 621.226 238.598 636.711 249.122 639.568 264.607 642.424 279.942 631.9 295.428 616.415 298.285 566.35 307.907 530.718 351.206 530.718 402.173 530.718 447.427 559.584 487.87 601.982 502.303 616.415 507.114 624.082 521.547 620.324 535.98 616.415 550.413 603.034 560.035 588.601 558.081 582.888 557.179 573.266 556.126 569.357 556.126 510.722 556.126 463.514 603.335 463.514 661.969 463.514 688.881 473.136 712.034 492.38 733.233 502.904 744.809 502.904 763.001 490.425 773.676 485.614 779.389 478.849 781.343 471.181 781.343Z" fill="#2E8E6D"/><path d="M471.181 791.116C460.056 791.116 449.983 786.605 442.766 778.186 411.795 745.11 396.009 706.02 396.009 661.969 396.009 625.886 406.984 591.307 427.732 562.14 445.472 537.183 469.227 517.638 496.74 504.859 475.09 475.391 463.213 439.459 463.213 402.173 463.213 362.181 477.345 322.941 502.904 291.82 528.613 260.548 564.546 239.349 603.936 231.832 606.191 231.381 608.597 231.231 610.852 231.231 629.194 231.231 645.582 244.762 649.039 262.803 652.948 283.4 638.816 303.998 618.219 307.907 573.266 316.627 540.49 356.167 540.49 402.173 540.49 443.367 566.5 479.751 605.139 492.981 624.383 499.446 634.907 518.991 629.645 538.386 624.984 555.826 609.499 568.004 592.059 568.004 590.405 568.004 588.751 567.853 587.097 567.703L586.797 567.703C581.234 566.801 572.213 565.899 569.206 565.899 516.285 565.899 473.136 609.048 473.136 661.969 473.136 686.325 481.555 706.772 499.446 726.618 506.512 734.435 510.271 744.809 509.67 755.183 509.068 764.956 504.708 773.976 497.341 780.441 491.177 787.507 482.457 791.116 471.181 791.116ZM611.002 250.776C609.95 250.776 608.747 250.926 607.695 251.076 535.379 264.607 482.908 328.203 482.908 402.173 482.908 439.308 496.139 474.94 519.893 502.603L529.214 513.278 515.984 518.239C455.996 540.49 415.554 598.223 415.554 662.12 415.554 701.059 429.536 735.789 457.199 765.106L457.5 765.407C461.86 770.518 467.423 771.571 471.181 771.571 478.548 771.571 481.254 769.315 482.908 767.361L483.51 766.76 484.111 766.158C488.772 762.249 489.974 757.288 490.275 753.98 490.576 748.869 488.772 743.607 485.163 739.848 463.965 716.544 453.741 691.136 453.741 661.969 453.741 630.998 465.769 601.831 487.569 580.181 509.369 558.381 538.386 546.354 569.357 546.354 574.168 546.354 584.241 547.406 589.954 548.308 590.706 548.459 591.457 548.459 592.209 548.459 600.779 548.459 608.446 542.294 610.852 533.274 613.408 523.802 608.446 514.481 598.975 511.323 552.368 495.387 521.096 451.486 521.096 402.023 521.096 375.111 530.417 348.951 547.406 328.354 564.395 307.756 588.3 293.624 614.761 288.512 624.984 286.558 632.05 276.334 630.096 266.261 628.292 257.541 620.173 250.776 611.002 250.776Z" fill="#2E8E6D"/><path d="M734.887 339.629C726.167 339.629 717.597 335.72 711.733 329.105 683.769 294.526 669.336 252.129 669.336 207.927 669.336 99.0774 757.889 10.6745 866.589 10.6745 975.288 10.6745 1063.84 99.2277 1063.84 207.927 1063.84 224.315 1051.36 236.793 1034.98 236.793 1018.59 236.793 1006.11 224.315 1006.11 207.927 1006.11 130.951 943.565 68.407 866.589 68.407 789.612 68.407 727.069 130.951 727.069 207.927 727.069 239.65 737.593 268.516 756.837 293.624 766.459 306.102 764.504 324.445 752.026 334.067 747.365 337.825 741.502 339.629 734.887 339.629Z" fill="#2E8E6D"/><path d="M734.887 349.402C723.31 349.402 711.884 344.14 704.366 335.42L704.216 335.119C675.049 299.036 659.714 254.985 659.714 207.777 659.714 93.665 752.627 0.751726 866.739 0.751725 980.851 0.751725 1073.76 93.665 1073.76 207.777 1073.76 229.427 1056.78 246.416 1035.13 246.415 1013.48 246.415 996.487 229.427 996.487 207.777 996.487 136.213 938.303 78.0291 866.739 78.0291 795.175 78.0291 736.991 136.213 736.991 207.777 736.991 236.643 746.313 263.404 764.805 287.46 770.969 295.578 773.826 305.651 772.623 315.875 771.42 326.249 766.309 335.269 758.19 341.584 751.575 346.846 743.757 349.402 734.887 349.402ZM719.251 322.791C723.16 327.151 728.873 329.857 734.887 329.857 739.397 329.857 743.005 328.654 746.162 326.249L746.313 326.098C750.222 323.091 752.627 318.731 753.229 313.62 753.83 308.508 752.477 303.396 749.32 299.337 728.121 271.824 717.446 241.003 717.446 207.777 717.446 125.388 784.35 58.4842 866.739 58.4842 949.128 58.4842 1016.03 125.388 1016.03 207.777 1016.03 218.602 1024.3 226.871 1035.13 226.871 1045.95 226.871 1054.22 218.602 1054.22 207.777 1054.22 104.339 970.176 20.2966 866.739 20.2966 763.302 20.2966 679.259 104.339 679.259 207.777 679.109 250.475 693.091 290.316 719.251 322.791Z" fill="#2E8E6D"/><path d="M963.11 901.619C945.821 901.619 957.547 900.717 938.303 899.665 921.916 898.763 910.339 885.232 911.392 868.844 912.294 852.456 925.825 840.88 942.212 841.932 999.945 845.841 1137.06 849.6 1242 733.233 1252.52 721.656 1270.87 720.754 1282.44 731.278 1294.02 741.802 1294.92 760.144 1284.4 771.721 1248.62 813.066 1174.8 901.619 963.11 901.619Z" fill="#2E8E6D"/><path d="M963.11 911.392C946.422 911.392 959.051 910.49 940.709 909.587L937.852 909.437C916.203 908.234 900.416 890.043 901.619 868.243 902.822 846.743 920.863 830.807 942.814 832.16 952.135 832.761 936.95 833.513 955.142 833.513 1034.82 833.513 1150.89 819.681 1234.63 726.618 1242 718.649 1252.37 714.139 1263.2 714.139 1272.82 714.139 1281.99 717.597 1288.91 724.062 1304.54 738.344 1305.75 762.55 1291.61 778.186 1275.83 796.528 1240.2 831.558 1179.01 861.026 1109.25 894.403 1056.62 911.392 963.11 911.392ZM940.258 851.705C929.734 851.705 921.765 859.222 921.164 869.445 920.563 880.42 928.08 889.291 938.905 889.892L941.611 890.043C959.803 890.945 946.873 891.847 963.11 891.847 1175.1 891.847 1244.11 803.444 1276.88 765.407L1277.03 765.106C1283.95 757.589 1283.35 745.411 1275.68 738.495 1272.37 735.338 1267.86 733.684 1263.2 733.684 1257.79 733.684 1252.67 735.939 1249.07 739.848 1160.21 838.324 1037.98 853.058 955.142 853.058 940.107 853.058 955.443 852.607 941.461 851.705L940.258 851.705Z" fill="#2E8E6D"/><path d="M1264.1 781.343C1257.34 781.343 1249.67 778.487 1244.86 773.676 1233.28 763.151 1232.38 744.809 1242.9 733.233 1262.15 712.034 1271.77 689.031 1271.77 661.969 1271.77 603.335 1224.56 556.126 1165.93 556.126 1162.02 556.126 1151.49 557.028 1146.68 558.081 1132.25 560.035 1117.82 550.413 1114.96 535.98 1111.05 521.547 1119.77 507.114 1133.3 502.303 1175.7 487.87 1204.56 447.427 1204.56 402.173 1204.56 343.538 1157.36 296.33 1098.72 296.33 1068.95 296.33 1041.89 307.907 1021.74 330.007 1011.22 341.584 993.781 342.486 982.354 331.962 970.778 322.34 968.823 303.998 978.445 292.571 997.69 267.614 1008.21 237.695 1008.21 206.875 1008.21 129.898 945.67 67.3546 868.694 67.3546 852.306 67.3546 839.827 54.8759 839.827 38.4883 839.827 22.1007 852.306 9.62208 868.694 9.62208 977.393 9.62208 1065.95 98.1753 1065.95 206.875 1065.95 219.353 1065.04 230.93 1063.09 243.409 1075.57 240.552 1087.14 239.5 1099.62 239.5 1190.13 239.5 1263.2 312.567 1263.2 403.075 1263.2 443.518 1248.77 480.052 1223.81 509.82 1286.35 532.973 1330.55 592.51 1330.55 662.871 1330.55 704.216 1315.22 740.75 1286.35 772.623 1279.44 778.487 1271.77 781.343 1264.1 781.343Z" fill="#2E8E6D"/><path d="M1264.1 791.116C1254.63 791.116 1244.56 787.207 1238.09 780.742 1222.61 766.309 1221.55 742.103 1235.69 726.618 1253.58 706.922 1262 686.325 1262 661.969 1262 609.048 1218.85 565.899 1165.93 565.899 1162.77 565.899 1152.85 566.801 1148.64 567.703L1148.03 567.853C1146.38 568.004 1144.73 568.154 1143.07 568.154 1124.88 568.154 1109.1 555.525 1105.49 538.235 1100.68 519.592 1111.35 499.747 1129.99 493.132 1168.78 479.901 1194.64 443.367 1194.64 402.323 1194.64 349.402 1151.49 306.253 1098.57 306.253 1071.21 306.253 1047 316.777 1028.81 336.773 1021.59 344.741 1011.37 349.251 1000.85 349.251 991.525 349.251 982.655 345.794 975.739 339.479 968.372 333.315 963.561 323.994 962.659 314.071 961.607 303.998 964.614 294.075 970.778 286.558 988.97 262.953 998.441 235.44 998.441 207.025 998.441 135.461 940.258 77.2773 868.694 77.2773 847.044 77.2773 830.055 60.2884 830.055 38.6387 830.055 16.989 847.044-8.52651e-14 868.694-8.52651e-14 982.805-8.52651e-14 1075.72 92.9132 1075.72 207.025 1075.72 215.294 1075.27 223.262 1074.52 231.531 1082.33 230.479 1090.45 229.878 1099.62 229.878 1195.24 229.878 1272.97 307.606 1272.97 403.225 1272.97 440.361 1261.39 475.541 1239.29 505.911 1266.96 518.54 1290.71 538.235 1308.45 563.193 1329.2 592.359 1340.18 626.939 1340.18 663.022 1340.18 706.02 1324.39 745.11 1293.42 779.238L1292.97 779.689 1292.52 780.14C1284.1 787.357 1274.32 791.116 1264.1 791.116ZM1165.93 546.354C1196.9 546.354 1225.91 558.381 1247.71 580.181 1269.51 601.982 1281.54 630.998 1281.54 661.969 1281.54 690.986 1271.32 716.544 1250.12 739.698 1243.2 747.215 1243.8 759.393 1251.47 766.309L1251.77 766.609C1254.63 769.466 1259.74 771.42 1264.1 771.42 1269.36 771.42 1274.78 769.315 1279.44 765.407 1306.8 735.037 1320.78 700.608 1320.78 662.721 1320.78 598.824 1280.49 541.092 1220.35 518.841L1207.27 514.33 1216.14 503.656C1240.5 474.639 1253.28 439.91 1253.28 403.075 1253.28 318.28 1184.27 249.272 1099.47 249.272 1086.54 249.272 1075.87 250.324 1065.04 252.88L1051.06 256.188 1053.32 241.905C1055.27 229.577 1056.02 218.451 1056.02 206.875 1056.02 103.437 971.981 19.3945 868.543 19.3945 857.718 19.3945 849.449 27.6635 849.449 38.4883 849.449 49.3132 857.718 57.5821 868.543 57.5821 950.932 57.5821 1017.84 124.486 1017.84 206.875 1017.84 239.65 1006.86 271.373 985.963 298.435L985.662 298.736C982.805 302.194 981.302 307.005 981.903 311.966 982.354 316.927 984.76 321.438 988.368 324.445L988.669 324.745C992.127 327.902 996.336 329.556 1000.7 329.556 1005.81 329.556 1010.62 327.451 1014.23 323.392 1036.18 299.337 1065.34 286.558 1098.42 286.558 1129.39 286.558 1158.41 298.585 1180.21 320.385 1202.01 342.185 1214.04 371.202 1214.04 402.173 1214.04 451.636 1182.76 495.688 1136.16 511.474 1127.14 514.781 1121.72 524.403 1124.13 533.424L1124.28 534.026C1125.93 542.294 1133.9 548.609 1142.77 548.609 1143.52 548.609 1144.28 548.609 1144.88 548.459 1150.59 547.406 1161.42 546.354 1165.93 546.354Z" fill="#2E8E6D"/><path d="M858.32 549.511C851.554 549.511 845.841 547.557 839.978 542.746L745.711 465.919C733.233 456.297 731.278 437.955 741.802 425.476 751.424 412.998 769.767 411.043 782.245 421.567L876.512 498.544C888.99 508.166 890.945 526.508 880.42 538.987 874.707 545.752 865.987 549.511 858.32 549.511ZM881.323 437.053C872.603 437.053 864.033 433.144 858.169 425.476 848.547 412.998 851.404 394.656 863.883 385.034L924.472 339.78C936.95 330.158 955.292 333.014 964.914 345.493 974.536 357.972 971.68 376.314 959.201 385.936L898.612 431.19C892.899 435.099 887.186 437.053 881.323 437.053ZM912.294 674.598C902.672 674.598 893.049 669.787 887.336 661.067 878.616 647.536 883.427 629.344 896.958 621.677L996.036 560.035C1009.57 551.315 1027.76 556.126 1035.43 569.657 1044.15 583.188 1039.34 601.38 1025.8 609.048L926.727 670.689C922.818 672.794 917.105 674.598 912.294 674.598ZM820.884 177.708C813.216 177.708 805.549 174.851 799.685 168.086 789.161 156.509 790.063 138.317 801.64 127.643 827.649 104.49 860.274 92.0112 895.004 92.0112 911.392 92.0112 923.87 104.49 923.87 120.877 923.87 137.265 911.392 149.744 895.004 149.744 874.858 149.744 855.614 157.411 840.128 170.942 834.415 174.851 827.649 177.708 820.884 177.708ZM784.35 259.496C776.682 259.496 769.015 256.639 764.204 250.776 758.491 245.062 755.484 238.297 755.484 230.629 755.484 222.962 758.34 215.294 764.204 210.483 765.106 209.581 767.06 207.626 769.015 206.574 770.969 205.672 771.871 204.62 773.826 203.718 775.78 202.815 777.735 202.815 779.539 201.763 789.161 199.809 798.783 202.665 805.549 209.431 811.262 215.144 814.269 221.909 814.269 229.577 814.269 237.244 811.412 244.912 805.549 249.723 798.783 256.639 792.018 259.496 784.35 259.496Z" fill="#2E8E6D"/><path d="M878.316 1013.48C859.974 1013.48 845.24 998.742 845.24 980.4L845.24 301.592C845.24 283.25 859.974 268.516 878.316 268.516 896.658 268.516 911.392 283.25 911.392 301.592L911.392 980.4C911.392 998.592 896.507 1013.48 878.316 1013.48Z" fill="#2E8E6D"/></svg>