<svg width="92" height="95" xmlns="http://www.w3.org/2000/svg" xmlns:xlink="http://www.w3.org/1999/xlink" overflow="hidden"><defs><clipPath id="clip0"><rect x="786" y="234" width="92" height="95"/></clipPath></defs><g clip-path="url(#clip0)" transform="translate(-786 -234)"><path d="M819.963 288.214C823.276 284.863 825.528 282.102 826.717 279.933 827.906 277.764 828.5 275.552 828.5 273.296 828.5 270.305 827.572 267.924 825.716 266.155 823.859 264.385 821.328 263.5 818.122 263.5 814.393 263.5 811.126 264.604 808.318 266.813L808.318 271.487C811.202 268.731 814.232 267.353 817.408 267.353 819.556 267.353 821.197 267.905 822.333 269.009 823.468 270.113 824.036 271.699 824.036 273.766 824.036 275.583 823.553 277.341 822.586 279.04 821.619 280.74 819.709 283.045 816.856 285.958L806.5 296.507 806.5 300.5 828.178 300.5 828.178 296.413 811.839 296.413 811.839 296.319 819.963 288.214Z" stroke="#FFC000" stroke-width="1.33333" stroke-miterlimit="8" fill="#FFC000" fill-rule="evenodd"/><path d="M853.862 300.5 853.862 291.157 858.5 291.157 858.5 287.555 853.862 287.555 853.862 264.5 848.545 264.5 832.5 288.206 832.5 291.157 849.412 291.157 849.412 300.5 853.862 300.5ZM837.232 287.555 848.03 271.542C848.733 270.287 849.193 269.365 849.412 268.776L849.505 268.776C849.443 270.171 849.412 271.403 849.412 272.472L849.412 287.555 837.232 287.555Z" stroke="#FFC000" stroke-width="1.33333" stroke-miterlimit="8" fill="#FFC000" fill-rule="evenodd"/><path d="M876.499 264.27C876.499 264.265 876.5 264.26 876.5 264.255L876.5 245.181C876.5 243.963 875.515 242.975 874.3 242.975 873.085 242.975 872.1 243.963 872.1 245.181L872.1 255.767C866.91 248.117 859.56 242.203 850.785 238.745 839.264 234.205 826.672 234.436 815.325 239.395 791.902 249.633 781.15 277.075 791.358 300.567 796.303 311.947 805.37 320.715 816.89 325.255 822.384 327.42 828.119 328.5 833.849 328.5 840.135 328.5 846.414 327.199 852.35 324.605 860.617 320.992 867.595 315.105 872.53 307.581 873.198 306.563 872.917 305.195 871.902 304.525 870.886 303.855 869.522 304.138 868.855 305.156 864.39 311.963 858.075 317.289 850.592 320.56 840.323 325.048 828.925 325.257 818.499 321.148 808.073 317.039 799.867 309.104 795.392 298.804 786.153 277.543 795.884 252.706 817.083 243.441 827.352 238.952 838.75 238.743 849.176 242.852 858.512 246.532 866.067 253.282 870.758 262.049L862.883 262.049C861.668 262.049 860.683 263.036 860.683 264.255 860.683 265.474 861.668 266.461 862.883 266.461L873.803 266.461C874.248 266.565 874.728 266.534 875.179 266.337 876.021 265.969 876.517 265.137 876.499 264.27Z" stroke="#FFC000" stroke-width="1.33333" stroke-miterlimit="8" fill="#FFC000" fill-rule="evenodd"/></g></svg>