<svg width="70" height="91" xmlns="http://www.w3.org/2000/svg" xmlns:xlink="http://www.w3.org/1999/xlink" overflow="hidden"><defs><clipPath id="clip0"><rect x="677" y="235" width="70" height="91"/></clipPath></defs><g clip-path="url(#clip0)" transform="translate(-677 -235)"><path d="M683.755 324.5 678.5 324.5 678.5 237.559 680.723 237.215C681.832 237.046 708.03 233.161 720.784 245.427 732.429 256.63 734.927 257.031 742.81 256.851L745.5 256.784 745.5 301.149 743.595 301.688C742.994 301.865 728.622 305.734 714.906 291.429 712.294 289.936 692.841 279.254 683.821 287.625L683.755 287.554 683.755 324.5ZM693.056 279.285C704.706 279.285 717.197 286.71 717.928 287.151L718.482 287.596C727.36 297.012 736.412 297.358 740.245 296.993L740.245 262.08C732.452 261.953 728.272 259.894 717.124 249.168 708.188 240.576 690.063 241.485 683.755 242.103L683.755 281.344C686.606 279.867 689.798 279.285 693.056 279.285Z" stroke="#396F6E" stroke-width="1.33333" stroke-miterlimit="8" fill="#396F6E" fill-rule="evenodd"/></g></svg>