<svg width="89" height="105" xmlns="http://www.w3.org/2000/svg" xmlns:xlink="http://www.w3.org/1999/xlink" overflow="hidden"><defs><clipPath id="clip0"><rect x="916" y="233" width="89" height="105"/></clipPath></defs><g clip-path="url(#clip0)" transform="translate(-916 -233)"><path d="M1000.11 336.97 927.708 336.97C921.705 337.413 916.477 332.946 916.03 326.993 915.99 326.459 915.99 325.923 916.03 325.389L916.03 306.86C916.03 304.728 917.773 303 919.922 303 922.072 303 923.815 304.728 923.815 306.86L923.815 325.389C923.815 327.706 923.815 329.25 927.708 329.25L1000.11 329.25C1002.26 329.25 1004 330.978 1004 333.11 1004 335.242 1002.26 336.97 1000.11 336.97Z" fill="#FF6600" fill-rule="evenodd"/><path d="M991.508 324 919.892 324C917.743 324 916 322.266 916 320.126L916 245.741C916 239.322 921.228 234.118 927.677 234.118L991.508 234.118C997.463 233.242 1003 237.336 1003.88 243.263 1004 244.083 1004.03 244.915 1003.96 245.741L1003.96 312.378C1003.55 318.92 998.094 324.013 991.508 324ZM923.785 316.252 991.508 316.252C993.065 316.252 996.179 315.477 996.179 312.378L996.179 245.741C996.179 242.641 994.622 241.867 991.508 241.867L927.677 241.867C925.527 241.867 923.785 243.601 923.785 245.741Z" fill="#FF6600" fill-rule="evenodd"/><path d="M948.347 304.945 945.27 304.945C943.225 303.596 942.054 301.272 942.193 298.839L944.5 288.154 936.807 280.522C935.195 278.926 934.603 276.577 935.269 274.416 936.163 272.213 938.264 270.724 940.654 270.6L950.655 269.073 955.271 259.151C956.917 256.2 960.662 255.132 963.636 256.764 964.648 257.32 965.482 258.147 966.042 259.151L970.658 268.31 980.659 269.836C982.469 270.447 983.89 271.857 984.505 273.652 985.377 275.677 985.083 278.009 983.736 279.759L976.043 287.391 977.581 298.076C978.064 300.383 977.165 302.759 975.273 304.182 973.369 305.273 971.023 305.273 969.119 304.182L959.887 299.602 951.424 304.182ZM959.887 291.97 962.195 291.97 969.888 295.786 968.349 288.154C967.969 286.231 968.541 284.244 969.888 282.811L976.043 276.705 967.58 276.705C966.811 275.942 964.503 275.179 963.734 272.889L960.656 265.257 956.81 272.126C955.271 274.416 953.732 275.942 952.194 275.942L944.5 275.942 949.886 282.048C951.39 283.086 952.26 284.811 952.194 286.628L950.655 295.786 957.579 292.733Z" fill="#FF6600" fill-rule="evenodd"/></g></svg>