<svg width="96" height="77" xmlns="http://www.w3.org/2000/svg" xmlns:xlink="http://www.w3.org/1999/xlink" overflow="hidden"><defs><clipPath id="clip0"><rect x="669" y="104" width="96" height="77"/></clipPath></defs><g clip-path="url(#clip0)" transform="translate(-669 -104)"><path d="M762.009 173C760.347 173 759.018 171.532 759.018 169.696L759.018 144.159C759.018 139.963 755.932 136.502 752.087 136.502L675.935 136.502 675.935 162.04C675.935 163.246 676.837 164.243 677.929 164.243L682.819 164.243C684.48 164.243 685.762 165.711 685.762 167.546 685.762 169.382 684.433 170.85 682.819 170.85L677.929 170.85C673.561 170.85 670 166.917 670 162.093L670 133.304C670 131.468 671.329 130 672.991 130L752.134 130C759.208 130 765 136.345 765 144.211L765 169.749C764.953 171.532 763.623 173 762.009 173Z" fill="#2FD1D9" fill-rule="evenodd"/><path d="M733.984 171 701.36 171C699.695 171 698.411 169.548 698.411 167.734 698.411 165.919 699.743 164.467 701.36 164.467L734.031 164.467C735.695 164.467 737.027 165.919 737.027 167.734 737.027 169.548 735.648 171 733.984 171ZM679.96 137.093C679.437 137.093 678.913 136.937 678.438 136.626 677.011 135.693 676.583 133.723 677.439 132.167L691.611 106.555C692.134 105.57 693.133 105 694.179 105L725.804 105C726.565 105 727.326 105.311 727.896 105.933L752.102 131.545C753.291 132.79 753.291 134.863 752.15 136.108 751.009 137.404 749.106 137.404 747.965 136.159L724.615 111.429 695.796 111.429 682.48 135.485C681.957 136.574 680.958 137.093 679.96 137.093Z" fill="#2FD1D9" fill-rule="evenodd"/><path d="M713.131 136.929C711.45 136.929 710.106 135.485 710.106 133.68L710.106 108.25C710.106 106.444 711.45 105 713.131 105 714.811 105 716.156 106.444 716.156 108.25L716.156 133.731C716.108 135.485 714.763 136.929 713.131 136.929ZM691.716 180C685.282 180 680 174.378 680 167.414 680 160.451 685.282 154.88 691.716 154.88 698.15 154.88 703.432 160.502 703.432 167.466 703.432 174.429 698.15 180 691.716 180ZM691.716 161.327C688.595 161.327 686.002 164.061 686.002 167.466 686.002 170.87 688.547 173.604 691.716 173.604 694.885 173.604 697.382 170.818 697.382 167.414 697.382 164.01 694.837 161.327 691.716 161.327ZM743.284 180C736.85 180 731.569 174.378 731.569 167.414 731.569 160.451 736.802 154.828 743.284 154.828 749.718 154.828 755 160.451 755 167.414 755 174.378 749.718 180 743.284 180ZM743.284 161.327C740.163 161.327 737.57 164.061 737.57 167.466 737.57 170.87 740.115 173.604 743.284 173.604 746.453 173.604 748.998 170.87 748.998 167.466 748.998 164.061 746.405 161.327 743.284 161.327Z" fill="#2FD1D9" fill-rule="evenodd"/></g></svg>