<svg width="355.664" height="200" viewBox="0 0 1821 1024" xmlns="http://www.w3.org/2000/svg" xmlns:xlink="http://www.w3.org/1999/xlink" overflow="hidden"><path d="M432.533 654.533C387.733 719.067 364.133 795.467 364 875.6 364 893.333 378.533 907.867 396.267 907.867 414 907.867 428.533 893.333 428.533 875.6 428.533 704.133 559.467 564.533 720.267 564.533 738 564.533 752.533 550 752.533 532.267L752.533 532.133C752.533 514.4 738 499.867 720.267 499.867 630.8 499.867 558.133 421.867 558.133 326 558.133 230.267 630.933 152.267 720.267 152.267 738 152.267 752.533 137.733 752.533 120 752.533 102.267 738 87.7333 720.267 87.7333 595.333 87.7333 493.6 194.533 493.6 325.867 493.6 367.867 504.267 409.333 524.4 445.6 541.867 477.067 565.867 503.867 594.533 524 529.733 550.133 473.867 594.933 432.533 654.533ZM765.333 599.867C728 626.267 694.933 658.4 667.467 695.067 610.267 771.2 580.133 861.733 580.133 957.067 580.133 974.8 594.667 989.333 612.4 989.333 630.133 989.333 644.667 974.933 644.667 957.067 644.667 857.733 683.333 764.133 753.6 693.6 822.133 624.8 912.133 586.133 1008 584.267L1010.53 584.8C1013.87 585.467 1017.07 585.733 1020.4 585.467 1118.8 585.6 1211.73 624.4 1281.87 694.8 1352 765.333 1390.67 858.933 1390.67 958.267 1390.67 976 1405.2 990.533 1422.93 990.533 1440.67 990.533 1455.2 976 1455.2 958.267 1455.2 862.933 1425.07 772.4 1368 696.267 1340.53 659.733 1307.6 627.733 1270.27 601.2 1236.13 576.933 1198.67 557.733 1159.07 544.267 1196.27 522 1227.6 491.2 1250.8 454.133 1278.13 410.4 1292.53 360 1292.53 308.4 1292.53 156.533 1169.07 33.2 1017.33 33.2 865.6 33.2 742.267 156.667 742.267 308.267 742.267 404.4 792.4 493.6 874.667 543.467 835.733 557.067 798.933 576 765.333 599.867ZM1017.33 97.6C1133.47 97.6 1228.13 192.133 1228.13 308.4 1228.13 424.533 1133.47 519.2 1017.33 519.2 901.2 519.2 806.533 424.533 806.533 308.4 806.533 192.267 901.067 97.6 1017.33 97.6Z" stroke-width="1.00065" fill="#FF6699"/><path d="M1018.53 632.8 910.4 780.533 1018.53 881.867 1124 780.533 1018.53 632.8Z" stroke-width="1.00065" fill="#FF6699"/></svg>