<svg width="76" height="85" xmlns="http://www.w3.org/2000/svg" xmlns:xlink="http://www.w3.org/1999/xlink" overflow="hidden"><defs><clipPath id="clip0"><rect x="1041" y="239" width="76" height="85"/></clipPath></defs><g clip-path="url(#clip0)" transform="translate(-1041 -239)"><path d="M1066.63 240C1071.55 240 1076.23 244.026 1076.23 248.992L1076.23 261.439C1077.28 260.995 1078.44 260.75 1079.66 260.75 1082.41 260.75 1084.88 262.013 1086.51 263.996 1088.15 262.012 1090.61 260.75 1093.37 260.75 1096.64 260.75 1099.49 262.521 1101.04 265.162 1102.57 264.123 1104.42 263.517 1106.4 263.517 1111.05 263.517 1114.92 266.847 1115.81 271.271 1115.82 271.293 1115.84 271.32 1115.85 271.353L1115.86 271.382 1115.87 271.414C1115.88 271.431 1115.88 271.449 1115.88 271.467L1115.89 271.506 1115.9 271.548 1115.91 271.57 1115.92 271.615 1115.92 271.664 1115.93 271.715 1115.94 271.769 1115.95 271.855 1115.95 271.916 1115.96 271.979C1115.99 272.782 1116 273.189 1116 273.2L1108.97 316.138C1108.28 320.106 1104.86 323 1100.86 323L1066.63 323C1063.69 323 1060.97 321.417 1059.5 318.848L1043.2 286.866C1040.73 282.566 1042.19 277.067 1046.46 274.584L1047.65 273.892C1050.67 272.13 1054.3 272.36 1057.03 274.181L1057.03 248.992C1057.03 244.026 1061.02 240 1065.94 240L1066.63 240ZM1066.63 245.533C1064.38 245.533 1062.55 247.354 1062.51 249.615L1062.51 249.683 1062.51 282.623C1062.51 284.151 1061.29 285.39 1059.77 285.39 1058.79 285.39 1057.88 284.863 1057.39 284.007L1055.42 280.549C1054.28 278.564 1051.76 277.884 1049.8 279.03 1047.85 280.165 1047.17 282.663 1048.26 284.639L1064.24 316.06C1064.73 316.929 1065.64 317.467 1066.63 317.467L1101.33 317.467C1102.67 317.467 1103.82 316.489 1104.04 315.155L1110.51 273.2C1110.51 270.908 1108.67 269.05 1106.4 269.05 1104.15 269.05 1102.32 270.871 1102.29 273.131L1102.29 273.2 1102.29 280.117C1102.29 281.645 1101.06 282.883 1099.54 282.883 1098.04 282.883 1096.82 281.669 1096.8 280.163L1096.8 280.117 1096.8 269.742C1096.8 267.832 1095.26 266.283 1093.37 266.283 1091.5 266.283 1089.97 267.801 1089.94 269.685L1089.94 269.742 1089.94 280.117C1089.94 281.645 1088.71 282.883 1087.2 282.883 1085.7 282.883 1084.48 281.669 1084.46 280.163L1084.46 280.117 1084.46 270.433C1084.46 268.141 1082.61 266.283 1080.34 266.283 1078.09 266.283 1076.26 268.104 1076.23 270.365L1076.23 270.433 1076.23 280.117C1076.23 281.645 1075 282.883 1073.48 282.883 1071.99 282.883 1070.77 281.669 1070.74 280.163L1070.74 280.117 1070.74 249.683C1070.74 247.391 1068.9 245.533 1066.63 245.533Z" fill="#FF0066" fill-rule="evenodd"/></g></svg>