<svg width="104" height="91" xmlns="http://www.w3.org/2000/svg" xmlns:xlink="http://www.w3.org/1999/xlink" overflow="hidden"><defs><clipPath id="clip0"><rect x="912" y="102" width="104" height="91"/></clipPath></defs><g clip-path="url(#clip0)" transform="translate(-912 -102)"><path d="M990.541 173.897 982.423 173.897C980.861 173.897 979.404 172.243 979.404 170.699 979.404 169.156 980.965 167.501 982.423 167.501L990.541 167.501C1000.74 167.501 1008.86 158.9 1008.86 148.094 1008.86 137.287 1000.74 128.686 990.541 128.686 987.939 128.686 985.441 129.237 982.943 130.34 981.902 130.891 980.861 130.891 980.341 130.34 979.3 129.788 978.78 128.686 978.78 128.134 977.218 117.328 968.58 109.278 958.38 109.278 947.139 109.057 937.98 118.761 937.459 130.671 937.459 132.325 936.418 133.868 934.441 133.868 926.322 134.42 919.661 141.918 919.661 151.181 919.661 160.885 926.843 168.494 936.002 168.494L943.704 168.494C945.265 168.494 946.722 170.148 946.722 171.692 946.722 173.236 945.161 175 943.6 175L935.482 175C923.2 173.897 913 163.642 913 150.63 913 139.272 920.702 129.568 930.798 127.363 932.359 113.358 944.016 102 957.859 102 970.141 102 980.757 110.601 983.88 123.062 985.961 122.511 988.459 121.959 990.541 121.959 1004.28 122.069 1015 133.979 1015 147.983 1015 161.988 1003.76 173.897 990.541 173.897Z" fill="#0070C0" fill-rule="evenodd"/><path d="M956.373 193C955.321 193 954.796 192.438 954.27 191.877 953.218 190.754 953.218 188.619 954.27 186.934L962.474 178.173 956.268 178.173C955.216 178.173 953.639 177.612 953.218 175.927 952.692 174.803 953.218 173.231 953.744 172.108L967.102 157.842C968.154 156.719 970.153 156.719 971.73 157.842 972.782 158.966 972.782 161.1 971.73 162.785L964.052 171.995 969.732 171.995C970.784 171.995 972.256 172.557 972.782 174.242 973.308 175.365 972.782 176.938 972.256 178.061L958.898 192.438C957.846 193 956.794 193 956.373 193Z" fill="#0070C0" fill-rule="evenodd"/></g></svg>